<svg height="512pt" viewBox="-86 0 512 512.00071" width="512pt" xmlns="http://www.w3.org/2000/svg"><path d="m197.957031 511.929688s61.238281 6.042968 73.550781-92.21875c13.132813-104.785157 24.625-425.035157-73.550781-419.6445318 0 0-198.425781 264.0312498 0 511.8632818zm0 0" fill="#edcfb2"/><path d="m340.175781 313.96875c0 78.546875-63.671875 142.21875-142.21875 142.21875-78.542969 0-142.214843-63.671875-142.214843-142.21875 0-78.542969 63.671874-258.160156 142.214843-258.160156 78.546875 0 142.21875 179.617187 142.21875 258.160156zm0 0" fill="#dd9f80"/><path d="m224.871094 290.570312c-27.683594-73.566406-18.105469-182.519531-11.570313-232.496093-5.039062-1.484375-10.160156-2.265625-15.34375-2.265625-78.542969 0-142.214843 179.617187-142.214843 258.160156 0 78.546875 63.671874 142.21875 142.214843 142.21875 45.628907 0 86.238281-21.488281 112.261719-54.898438-24.628906-34.222656-63.417969-52.441406-85.347656-110.71875zm0 0" fill="#c68d6d"/><path d="m197.957031.0664062c-40.640625 0-99.828125 22.8398438-151.003906 131.6445318-28.082031 59.71875-46.953125 132.960937-46.953125 182.257812 0 109.15625 88.804688 197.957031 197.957031 197.957031-82.605469-220.046875 0-511.8593748 0-511.8593748zm0 0" fill="#fce5ca"/><g fill="#edcfb2"><path d="m105.539062 260.25c0 8.53125-6.917968 15.453125-15.453124 15.453125-8.535157 0-15.453126-6.921875-15.453126-15.453125 0-8.535156 6.917969-15.453125 15.453126-15.453125 8.535156 0 15.453124 6.917969 15.453124 15.453125zm0 0"/><path d="m140.671875 350.304688c0 8.535156-6.917969 15.453124-15.453125 15.453124-8.53125 0-15.453125-6.917968-15.453125-15.453124 0-8.53125 6.921875-15.453126 15.453125-15.453126 8.535156 0 15.453125 6.921876 15.453125 15.453126zm0 0"/><path d="m105.539062 422.226562c0 8.535157-6.917968 15.453126-15.453124 15.453126-8.535157 0-15.453126-6.917969-15.453126-15.453126 0-8.535156 6.917969-15.453124 15.453126-15.453124 8.535156 0 15.453124 6.917968 15.453124 15.453124zm0 0"/><path d="m62.664062 342.855469c0 8.53125-6.921874 15.449219-15.453124 15.449219-8.535157 0-15.453126-6.917969-15.453126-15.449219 0-8.535157 6.917969-15.453125 15.453126-15.453125 8.53125 0 15.453124 6.917968 15.453124 15.453125zm0 0"/></g><path d="m239.992188 387.472656c-5.679688-6.375-5.113282-16.140625 1.257812-21.820312 30.5-27.171875 37.578125-52.953125 28.050781-102.164063-1.625-8.378906 3.855469-16.488281 12.234375-18.109375 8.375-1.625 16.484375 3.855469 18.105469 12.234375 9.65625 49.863281 7.558594 91.976563-37.832031 131.117188-9.265625 7.992187-18.765625 2.167969-21.816406-1.257813zm0 0" fill="#c68d6d"/><path d="m261.808594 388.730469c7.464844-6.4375 13.753906-12.945313 19.015625-19.566407-7.28125-7.078124-14.75-14.347656-22.007813-22.558593-4.644531 6.488281-10.46875 12.722656-17.566406 19.046875-6.371094 5.679687-6.933594 15.445312-1.257812 21.820312 3.050781 3.425782 12.550781 9.25 21.816406 1.257813zm0 0" fill="#b2785b"/></svg>