<?xml version="1.0"?>
<svg xmlns="http://www.w3.org/2000/svg" height="512px" viewBox="-58 0 512 512" width="512px" class=""><g><path d="m152.136719 238.9375h91.351562v228.488281h-91.351562zm0 0" fill="#9ac6c3" data-original="#9AC6C3" class="active-path" style="fill:#E4DAD1" data-old_color="#DBD2CA"/><path d="m395.628906 456.425781c0 15.707031-12.734375 28.453125-28.453125 28.453125h-65.117187c-30.390625 0-55.035156-24.644531-55.035156-55.035156v-112.707031h104.386718c7.707032 0 14.691406 3.121093 19.738282 8.179687 5.058593 5.046875 8.179687 12.03125 8.179687 19.738282 0 27.578124-19.613281 50.558593-45.65625 55.773437-3.234375.636719-6.035156 2.359375-8.035156 4.738281-.875 1.050782-1.605469 2.234375-2.132813 3.511719-.667968 1.609375-1.039062 3.371094-1.039062 5.203125 0 7.5625 6.121094 13.679688 13.679687 13.679688h31.03125c7.859375 0 14.976563 3.183593 20.117188 8.335937 5.152343 5.148437 8.335937 12.265625 8.335937 20.128906zm0 0" fill="#d0f4ef" data-original="#D0F4EF" class="" style="fill:#FFFAF3" data-old_color="#FDF8F1"/><path d="m333.210938 484.875h-31.152344c-30.390625 0-55.035156-24.640625-55.035156-55.03125v-112.710938h46.996093v132.265626c18.019531 5.230468 32.347657 18.449218 39.191407 35.476562zm0 0" fill="#9ac6c3" data-original="#9AC6C3" class="active-path" style="fill:#E4DAD1" data-old_color="#DBD2CA"/><path d="m379.328125 345.050781c0 27.578125-19.613281 50.5625-45.65625 55.773438-3.234375.640625-6.035156 2.359375-8.035156 4.742187-.875 1.050782-1.605469 2.234375-2.132813 3.511719h-76.480468v-91.941406h104.386718c7.707032 0 14.691406 3.121093 19.738282 8.179687 5.058593 5.046875 8.179687 12.03125 8.179687 19.734375zm0 0" fill="#4c78a0" data-original="#4C78A0" class="" style="fill:#767677" data-old_color="#7E7F80"/><path d="m247.023438 317.136719h46.996093v91.941406h-46.996093zm0 0" fill="#336686" data-original="#336686" class="" style="fill:#5A5959" data-old_color="#4C4B4B"/><path d="m325.234375 507.621094c0 2.410156-1.90625 4.367187-4.304687 4.367187h-87.636719c-9.765625 0-17.679688-7.910156-17.679688-17.675781v-255.378906h66.042969v220.621094c24.449219 2.398437 43.546875 23.003906 43.578125 48.066406zm0 0" fill="#d0f4ef" data-original="#D0F4EF" class="" style="fill:#FFFAF3" data-old_color="#FDF8F1"/><path d="m281.660156 238.933594v39.382812l-65.519531 26.980469c-.175781.070313-.351563.144531-.527344.207031v-66.570312zm0 0" fill="#9ac6c3" data-original="#9AC6C3" class="active-path" style="fill:#E4DAD1" data-old_color="#DBD2CA"/><path d="m148.601562 317.136719v112.699219c0 30.398437-24.640624 55.042968-55.03125 55.042968h-65.117187c-15.71875 0-28.453125-12.742187-28.453125-28.453125 0-7.859375 3.183594-14.96875 8.324219-20.128906 5.160156-5.144531 12.28125-8.324219 20.128906-8.324219h31.027344c7.5625 0 13.683593-6.140625 13.683593-13.691406 0-1.84375-.371093-3.597656-1.042968-5.203125-.523438-1.277344-1.253906-2.460937-2.132813-3.523437-1.996093-2.367188-4.800781-4.078126-8.042969-4.726563-13.816406-2.761719-25.828124-10.539063-34.046874-21.347656-7.285157-9.558594-11.601563-21.488281-11.601563-34.425781 0-7.71875 3.132813-14.691407 8.167969-19.75 5.058594-5.046876 12.042968-8.167969 19.75-8.167969zm0 0" fill="#d0f4ef" data-original="#D0F4EF" class="" style="fill:#FFFAF3" data-old_color="#FDF8F1"/><path d="m148.601562 317.132812v112.703126c0 30.398437-24.640624 55.039062-55.03125 55.039062h-31.152343c6.839843-17.027344 21.171875-30.253906 39.199219-35.488281v-132.253907zm0 0" fill="#9ac6c3" data-original="#9AC6C3" class="active-path" style="fill:#E4DAD1" data-old_color="#DBD2CA"/><path d="m148.601562 317.136719v91.941406h-76.480468c-.523438-1.277344-1.257813-2.460937-2.132813-3.523437-1.996093-2.367188-4.800781-4.078126-8.046875-4.726563-13.8125-2.761719-25.824218-10.539063-34.046875-21.347656-7.28125-9.558594-11.597656-21.488281-11.597656-34.425781 0-7.71875 3.132813-14.691407 8.167969-19.75 5.058594-5.046876 12.042968-8.167969 19.75-8.167969zm0 0" fill="#4c78a0" data-original="#4C78A0" class="" style="fill:#767677" data-old_color="#7E7F80"/><path d="m101.613281 317.136719h46.988281v91.941406h-46.988281zm0 0" fill="#336686" data-original="#336686" class="" style="fill:#5A5959" data-old_color="#4C4B4B"/><path d="m180.011719 238.933594v255.386718c0 9.757813-7.910157 17.679688-17.675781 17.679688h-87.640626c-2.367187 0-4.304687-1.9375-4.304687-4.316406 0-25.09375 19.109375-45.730469 43.585937-48.140625v-220.609375zm0 0" fill="#d0f4ef" data-original="#D0F4EF" class="" style="fill:#FFFAF3" data-old_color="#FDF8F1"/><path d="m113.976562 238.933594h66.035157v66.570312c-.175781-.0625-.351563-.136718-.523438-.207031l-65.511719-26.972656zm0 0" fill="#9ac6c3" data-original="#9AC6C3" class="active-path" style="fill:#E4DAD1" data-old_color="#DBD2CA"/><path d="m155.671875 347.664062c0 26.644532-18.589844 48.304688-41.699219 48.878907v-97.765625c23.109375.578125 41.699219 22.246094 41.699219 48.886718zm0 0" fill="#4c78a0" data-original="#4C78A0" class="" style="fill:#767677" data-old_color="#7E7F80"/><path d="m222.808594 109.230469h64.570312v-62.421875c0-25.851563-20.957031-46.808594-46.808594-46.808594h-7.761718c-5.523438 0-10 4.476562-10 10zm0 0" fill="#336686" data-original="#336686" class="" style="fill:#5A5959" data-old_color="#4C4B4B"/><path d="m222.808594 109.230469h40.730468v-45.71875c0-18.933594-15.347656-34.285157-34.28125-34.285157h-6.449218zm0 0" fill="#fe825e" data-original="#FE825E" class="" style="fill:#EAA5D3" data-old_color="#DD98C6"/><path d="m172.816406 109.230469h-64.570312v-62.421875c0-25.851563 20.957031-46.808594 46.808594-46.808594h7.765624c5.523438 0 10 4.476562 10 10v99.230469zm0 0" fill="#336686" data-original="#336686" class="" style="fill:#5A5959" data-old_color="#4C4B4B"/><path d="m172.816406 109.230469h-40.730468v-45.71875c0-18.933594 15.351562-34.285157 34.285156-34.285157h6.445312zm0 0" fill="#fe825e" data-original="#FE825E" class="" style="fill:#EAA5D3" data-old_color="#DD98C6"/><path d="m198.992188 333.175781c-16.078126 0-29.113282-13.03125-29.113282-29.109375v-39.6875h58.226563v39.6875c0 16.078125-13.035157 29.109375-29.113281 29.109375zm0 0" fill="#f55" data-original="#F55" class="" style="fill:#E57FB7" data-old_color="#DA77AE"/><path d="m309.78125 253.363281-98.347656 40.5c-1.921875.789063-3.890625 1.410157-5.890625 1.859375-5.089844 1.121094-10.371094 1.121094-15.460938 0-2-.449218-3.96875-1.070312-5.890625-1.859375l-98.347656-40.5c-11.929688-4.910156-18.171875-18.121093-14.378906-30.460937l10.957031-35.6875c3.449219-11.261719 5.710937-22.820313 7.199219-34.511719.480468-3.757813 1.152344-7.480469 2.011718-11.109375 11.289063-48.191406 54.550782-84.058594 106.179688-84.058594 27.761719 0 53.109375 10.367188 72.371094 27.449219 16.550781 14.691406 28.589844 34.328125 33.808594 56.609375.859374 3.628906 1.53125 7.351562 2.011718 11.109375 1.488282 11.691406 3.75 23.25 7.199219 34.511719l10.960937 35.6875c3.789063 12.339844-2.449218 25.550781-14.382812 30.460937zm0 0" fill="#d0f4ef" data-original="#D0F4EF" class="" style="fill:#FFFAF3" data-old_color="#FDF8F1"/><path d="m303.988281 141.59375c-15.796875-9.242188-36.804687-8.148438-51.738281 5.429688-11.53125 10.472656-22.714844 20.167968-31.914062 27.976562-12.996094 11.027344-32.050782 11.027344-45.046876 0-9.199218-7.808594-20.382812-17.503906-31.914062-27.976562-14.933594-13.578126-35.945312-14.671876-51.742188-5.429688 11.292969-48.191406 54.546876-84.066406 106.179688-84.066406 27.757812 0 53.109375 10.378906 72.367188 27.460937 16.550781 14.679688 28.597656 34.324219 33.808593 56.605469zm0 0" fill="#4c78a0" data-original="#4C78A0" class="" style="fill:#767677" data-old_color="#7E7F80"/><path d="m205.542969 244.484375v51.238281c-5.089844 1.121094-10.371094 1.121094-15.460938 0v-51.238281c0-4.269531 3.460938-7.730469 7.730469-7.730469s7.730469 3.460938 7.730469 7.730469zm0 0" fill="#9ac6c3" data-original="#9AC6C3" class="active-path" style="fill:#E4DAD1" data-old_color="#DBD2CA"/><path d="m180.453125 237.417969 11.996094 11.996093c2.960937 2.960938 7.765625 2.960938 10.730469 0l11.996093-11.996093c4.777344-4.78125 1.394531-12.953125-5.367187-12.953125h-23.988282c-6.761718 0-10.148437 8.171875-5.367187 12.953125zm0 0" fill="#4c78a0" data-original="#4C78A0" class="" style="fill:#767677" data-old_color="#7E7F80"/><path d="m275.636719 193.226562c0 8.933594-7.246094 16.179688-16.179688 16.179688-8.9375 0-16.179687-7.246094-16.179687-16.179688 0-8.9375 7.242187-16.179687 16.179687-16.179687 8.933594 0 16.179688 7.242187 16.179688 16.179687zm0 0" fill="#2081f6" data-original="#2081F6" class="" style="fill:#5B3321" data-old_color="#4F2C1D"/><path d="m152.351562 193.226562c0 8.933594-7.246093 16.179688-16.179687 16.179688-8.9375 0-16.183594-7.246094-16.183594-16.179688 0-8.9375 7.246094-16.179687 16.183594-16.179687 8.933594 0 16.179687 7.242187 16.179687 16.179687zm0 0" fill="#2081f6" data-original="#2081F6" class="" style="fill:#5B3321" data-old_color="#4F2C1D"/><g fill="#ffbd47"><path d="m372.367188 209.539062c-3.378907 0-6.480469-2.230468-7.4375-5.644531-1.148438-4.113281 1.25-8.375 5.359374-9.523437l11.105469-3.101563c4.113281-1.15625 8.371094 1.25 9.519531 5.359375 1.148438 4.109375-1.25 8.371094-5.359374 9.519532l-11.101563 3.105468c-.695313.195313-1.398437.285156-2.085937.285156zm0 0" data-original="#000000" class="" style="fill:#343434" data-old_color="#000000"/><path d="m360.140625 184.324219c-1.949219 0-3.898437-.730469-5.402344-2.203125-3.050781-2.984375-3.105469-7.875-.121093-10.925782l8.0625-8.238281c2.984374-3.046875 7.875-3.101562 10.925781-.117187s3.105469 7.875.121093 10.925781l-8.0625 8.238281c-1.515624 1.546875-3.519531 2.320313-5.523437 2.320313zm0 0" data-original="#000000" class="" style="fill:#343434" data-old_color="#000000"/><path d="m386.160156 240.304688c-.632812 0-1.28125-.078126-1.925781-.246094l-11.164063-2.863282c-4.132812-1.058593-6.625-5.269531-5.5625-9.402343 1.058594-4.132813 5.265626-6.625 9.402344-5.5625l11.164063 2.863281c4.132812 1.058594 6.625 5.269531 5.566406 9.402344-.894531 3.488281-4.035156 5.808594-7.480469 5.808594zm0 0" data-original="#000000" class="" style="fill:#343434" data-old_color="#000000"/></g></g> </svg>
