<?xml version="1.0"?>
<svg xmlns="http://www.w3.org/2000/svg" height="512px" viewBox="-51 0 512 512" width="512px" class=""><g><path d="m259.195312 30.558594c9.472657 0 17.152344 7.679687 17.152344 17.152344v63.722656h-225.792968v-80.875zm0 0" fill="#495059" data-original="#495059" class="" style="fill:#242424" data-old_color="#262525"/><path d="m50.554688 111.433594h225.792968v80.875h-225.792968zm0 0" fill="#d97b7d" data-original="#D97B7D" class="" style="fill:#DC3A3A" data-old_color="#DC3939"/><path d="m50.554688 192.308594h225.792968v80.871094h-225.792968zm0 0" fill="#f7cf66" data-original="#F7CF66" class="" style="fill:#FFD74C" data-old_color="#FDD64B"/><path d="m216.503906 121.761719c0 9.472656 7.679688 17.152343 17.152344 17.152343h148.386719c14.9375 0 27.050781 12.109376 27.050781 27.050782v53.824218h-192.589844zm0 0" fill="#495059" data-original="#495059" class="" style="fill:#242424" data-old_color="#262525"/><path d="m216.503906 219.789062h192.589844v80.875h-192.589844zm0 0" fill="#d97b7d" data-original="#D97B7D" class="" style="fill:#DC3A3A" data-old_color="#DC3939"/><path d="m382.042969 381.539062h-138.488281c-14.941407 0-27.050782-12.109374-27.050782-27.050781v-53.824219h192.589844v53.824219c0 14.9375-12.113281 27.050781-27.050781 27.050781zm0 0" fill="#f7cf66" data-original="#F7CF66" class="" style="fill:#FFD74C" data-old_color="#FDD64B"/><path d="m276.347656 138.914062h-42.691406c-9.472656 0-17.152344-7.679687-17.152344-17.152343 0-4.734375 1.921875-9.023438 5.023438-12.125l49.796875-49.796875c3.105469-3.105469 5.023437-7.394532 5.023437-12.128906zm0 0" fill="#41464f" data-original="#41464F" class="" style="fill:#40464F" data-old_color="#3E434B"/><path d="m41.339844 512h-32.125c-5.089844 0-9.214844-4.125-9.214844-9.214844v-485.460937c0-9.566407 7.757812-17.324219 17.324219-17.324219h15.90625c9.566406 0 17.324219 7.757812 17.324219 17.324219v485.460937c0 5.089844-4.125 9.214844-9.214844 9.214844zm0 0" fill="#ddaf89" data-original="#DDAF89" class="active-path" style="fill:#CE9668" data-old_color="#CA9468"/><path d="m50.554688 502.785156v-105.113281c-27.386719-25.207031-43.460938-77.328125-50.554688-125.492187v230.605468c0 5.089844 4.125 9.214844 9.214844 9.214844h32.125c5.089844 0 9.214844-4.125 9.214844-9.214844zm0 0" fill="#c9a07d" data-original="#C9A07D" class="" style="fill:#BA8961" data-old_color="#BF8F67"/><path d="m50.554688 273.179688h124.988281c-26.988281-20.527344-47.492188-48.300782-62.484375-80.871094h-62.503906zm0 0" fill="#ebc35c" data-original="#EBC35C" class="" style="fill:#FBC542" data-old_color="#FCC642"/><path d="m88.101562 111.433594h-37.546874v80.875h62.503906c-11.316406-24.582032-19.492188-51.894532-24.957032-80.875zm0 0" fill="#c77172" data-original="#C77172" class="" style="fill:#CF5F5F" data-old_color="#D15F5F"/><path d="m79.65625 30.558594h-29.101562v80.875h37.546874c-4.878906-25.875-7.589843-53.085938-8.445312-80.875zm0 0" fill="#41464f" data-original="#41464F" class="" style="fill:#40464F" data-old_color="#3E434B"/><path d="m0 401.84375c11.105469 18.269531 21.472656 39.96875 17.9375 56.828125-2.796875 13.324219-8.335938 19.53125-17.9375 23.34375v15.832031c15.546875-4.671875 27.847656-13.355468 32.617188-36.09375 6.203124-29.558594-16.921876-64.214844-32.617188-87.449218zm0 0" fill="#ddaf89" data-original="#DDAF89" class="active-path" style="fill:#CE9668" data-old_color="#CA9468"/><g fill="#c9a07d"><path d="m50.554688 301.265625c-13.347657-25.492187-22.988282-56.296875-15.175782-79.039063 4.90625-14.277343 10.054688-22.925781 15.175782-29.929687v-24.566406c-1.828126 2.617187-3.828126 5.113281-5.980469 7.800781-7.398438 9.25-15.789063 19.734375-23.378907 41.820312-11.292968 32.863282 6.261719 79.378907 29.359376 113.207032zm0 0" data-original="#000000" class="" style="fill:#B58254" data-old_color="#B88455"/><path d="m3.097656 7.449219c17.699219 28.972656 23.832032 57.707031 18.214844 85.519531-3.90625 19.347656-12.738281 34.542969-21.3125 45.019531v21.613281c14.613281-12.761718 30.417969-35.945312 36.015625-63.664062 6.367187-31.515625-.320313-63.734375-19.855469-95.8789062-5.414062.3632812-10.140625 3.1914062-13.0625 7.3906252zm0 0" data-original="#000000" class="" style="fill:#B58254" data-old_color="#B88455"/></g></g> </svg>
