<?xml version="1.0"?>
<svg xmlns="http://www.w3.org/2000/svg" xmlns:xlink="http://www.w3.org/1999/xlink" version="1.1" id="Capa_1" x="0px" y="0px" viewBox="0 0 511.999 511.999" style="enable-background:new 0 0 511.999 511.999;" xml:space="preserve" width="512px" height="512px" class=""><g><g>
	<path style="fill:#64513D" d="M0.574,165.033c1.641-4.109,6.336-6.109,10.398-4.461l75.038,30.016   c1.594,0.648,3.375,0.742,5.063,0.281l76.921-20.977c5.695-1.539,11.75-0.961,17.055,1.688l27.421,13.71L162.281,78.635   c-1.516-3.227-2.281-6.664-2.281-10.211V8.003c0-4.422,3.578-8,8-8s8,3.578,8,8v60.421c0,1.18,0.258,2.328,0.766,3.406   l61.9,131.337l-15.19,5.516l-45.577-22.792c-1.773-0.883-3.797-1.078-5.695-0.562L95.29,206.297   c-5.023,1.398-10.438,1.062-15.234-0.859L5.034,175.431C0.933,173.79-1.067,169.134,0.574,165.033z" data-original="#B4916E" class="" data-old_color="#B4916E"/>
	<path style="fill:#64513D" d="M112.001,511.996c3.195,0,6.211-1.93,7.453-5.086l68.874-176.014c1.727-4.414,4.203-8.453,7.352-12   l66.265-73.546c2.953-3.281,2.695-8.336-0.594-11.297c-3.258-2.945-8.336-2.703-11.297,0.594l-66.304,73.585   c-4.438,5-7.898,10.648-10.32,16.828l-68.882,176.022c-1.609,4.117,0.422,8.758,4.539,10.367   C110.04,511.825,111.032,511.996,112.001,511.996z" data-original="#B4916E" class="" data-old_color="#B4916E"/>
</g><path style="fill:#00FF33" d="M48.994,298.984c5.912-9.812,24.981-15.971,47.007-26.984l124.202-55.56  C198.5,236.501,187.5,281.5,128.001,320c-21.775,14.09-43.19,14.598-58.164,13.335C54.002,331.999,37.336,318.333,48.994,298.984z" data-original="#E6D2AC" class="active-path" data-old_color="#E6D2AC"/><path style="fill:#936F3A" d="M92.423,264.844C140.118,241,255.038,192.4,255.999,192.001l-12.922,23.383L48.994,298.984  C57.51,286.484,72.127,274.999,92.423,264.844z" data-original="#C8AB87" class="" data-old_color="#C8AB87"/><g>
	<path style="fill:#64513D" d="M511.426,165.033c-1.641-4.109-6.336-6.109-10.398-4.461l-75.038,30.016   c-1.594,0.648-3.375,0.742-5.062,0.281l-76.921-20.977c-5.695-1.539-11.75-0.961-17.055,1.688l-27.421,13.71l50.186-106.655   c1.516-3.227,2.281-6.664,2.281-10.211V8.003c0-4.422-3.578-8-8-8s-8,3.578-8,8v60.421c0,1.18-0.258,2.328-0.766,3.406   l-61.9,131.337l15.19,5.516l45.577-22.792c1.773-0.883,3.797-1.078,5.695-0.562l76.913,20.969   c5.023,1.398,10.438,1.062,15.234-0.859l75.022-30.008C511.067,173.79,513.067,169.134,511.426,165.033z" data-original="#B4916E" class="" data-old_color="#B4916E"/>
	<path style="fill:#64513D" d="M399.997,511.996c-3.195,0-6.211-1.93-7.453-5.086L323.67,330.897   c-1.727-4.414-4.203-8.453-7.352-12l-66.265-73.546c-2.953-3.281-2.695-8.336,0.594-11.297c3.258-2.945,8.336-2.703,11.297,0.594   l66.304,73.585c4.438,5,7.898,10.648,10.32,16.828l68.882,176.021c1.609,4.117-0.422,8.758-4.539,10.367   C401.958,511.825,400.966,511.996,399.997,511.996z" data-original="#B4916E" class="" data-old_color="#B4916E"/>
</g><path style="fill:#00FF33" d="M463.004,298.984c-5.912-9.812-24.981-15.971-47.007-26.984l-124.202-55.56  c21.704,20.061,32.704,65.06,92.203,103.56c21.775,14.09,43.19,14.598,58.164,13.335  C457.996,331.999,474.663,318.333,463.004,298.984z" data-original="#E6D2AC" class="active-path" data-old_color="#E6D2AC"/><path style="fill:#936F3A" d="M419.576,264.844C371.882,241,256.961,192.4,256,192.001l12.922,23.383l194.083,83.601  C454.49,286.484,439.872,274.999,419.576,264.844z" data-original="#C8AB87" class="" data-old_color="#C8AB87"/><ellipse style="fill:#755F51" cx="255.996" cy="215.997" rx="16" ry="36" data-original="#9B7D64" class="" data-old_color="#9C712E"/><path style="fill:#7D5F5F" d="M255.999,248c-8.836,0-16,31.399-16,79.999c0,17.382,2.047,35.633,4.676,51.908  c2.193,13.577,3.324,27.27,3.324,41.022v27.068c0,4.422,3.578,8,8,8s8-3.578,8-8v-27.068c0-13.753,1.131-27.446,3.324-41.022  c2.629-16.276,4.676-34.527,4.676-51.908C271.999,279.398,264.836,248,255.999,248z" data-original="#7D5F5F" class=""/><path style="fill:#936F3A" d="M255.999,159.993c-3.438,0-6.484-2.195-7.586-5.453c-1.961-5.813-9.375-22.078-19.992-27.383  c-3.953-1.977-5.555-6.781-3.578-10.734c1.984-3.953,6.789-5.539,10.734-3.578c9.055,4.531,15.812,12.969,20.422,20.617  c4.609-7.648,11.367-16.086,20.422-20.617c3.953-1.961,8.75-0.375,10.734,3.578c1.977,3.953,0.375,8.758-3.578,10.734  c-10.695,5.344-18.055,21.57-19.992,27.375c-1.086,3.258-4.133,5.453-7.578,5.461H255.999z" data-original="#C8AB87" class="" data-old_color="#C8AB87"/><g>
	<path style="fill:#00FF33" d="M242.927,367.998h26.145c0.698-5.24,1.274-10.597,1.753-16h-29.651   C241.653,357.401,242.229,362.759,242.927,367.998z" data-original="#5D5360" class="" data-old_color="#5D5360"/>
	<path style="fill:#00FF33" d="M239.999,327.999c0,2.643,0.13,5.327,0.219,8h31.562c0.089-2.673,0.219-5.357,0.219-8   c0-2.728-0.03-5.383-0.074-8h-31.852C240.03,322.617,239.999,325.271,239.999,327.999z" data-original="#5D5360" class="" data-old_color="#5D5360"/>
	<path style="fill:#00FF33" d="M240.648,303.999h30.702c-0.319-5.696-0.742-11.061-1.273-16h-28.155   C241.39,292.938,240.967,298.304,240.648,303.999z" data-original="#5D5360" class="" data-old_color="#5D5360"/>
</g><circle style="fill:#755F51" cx="255.996" cy="167.998" r="16" data-original="#876E55" class="" data-old_color="#64513D"/></g> </svg>
