<?xml version="1.0" encoding="iso-8859-1"?>
<!-- Generator: Adobe Illustrator 19.0.0, SVG Export Plug-In . SVG Version: 6.00 Build 0)  -->
<svg version="1.1" id="Layer_1" xmlns="http://www.w3.org/2000/svg" xmlns:xlink="http://www.w3.org/1999/xlink" x="0px" y="0px"
	 viewBox="0 0 473.654 473.654" style="enable-background:new 0 0 473.654 473.654;" xml:space="preserve">
<circle style="fill:#B9E8EA;" cx="236.827" cy="236.827" r="236.827"/>
<path style="fill:#83A34B;" d="M2.678,272.398c17.168,113.915,115.467,201.256,234.168,201.256
	c118.709,0,217.007-87.338,234.176-201.256L2.678,272.398L2.678,272.398z"/>
<polygon style="fill:#CC9B7A;" points="396.844,182.271 279.29,156.602 258.663,165.977 258.663,169.728 209.435,183.793 
	195.838,209.106 162.556,211.45 161.149,251.303 397.898,251.303 "/>
<polygon style="fill:#B78967;" points="279.29,156.602 258.663,165.977 258.663,169.728 209.435,183.793 195.838,209.106 
	160.596,211.402 161.149,251.303 283.041,251.303 "/>
<polygon style="fill:#E2DDDC;" points="78.632,201.608 50.503,209.577 50.196,213.152 152.709,227.392 154.583,210.983 "/>
<g>
	<polygon style="fill:#F0F2F2;" points="288.901,154.493 288.901,157.773 300.153,160.585 300.153,157.305 	"/>
	<polygon style="fill:#F0F2F2;" points="294.29,161.288 283.041,161.288 281.164,238.173 296.167,238.173 	"/>
</g>
<polygon style="fill:#E6E8E8;" points="288.366,161.288 283.041,161.288 281.164,238.173 288.602,238.173 "/>
<polygon style="fill:#EAE5E4;" points="277.764,156.718 277.648,160.585 283.041,162.226 294.29,162.226 300.153,160.585 
	300.153,156.718 "/>
<g>
	<polygon style="fill:#F0F2F2;" points="277.648,157.305 277.648,160.585 288.901,157.773 288.901,154.493 	"/>
	<polygon style="fill:#F0F2F2;" points="288.901,154.493 288.901,157.773 300.153,160.585 300.153,157.305 	"/>
</g>
<polygon style="fill:#EAE5E4;" points="398.87,186.377 398.781,189.54 403.074,190.883 412.041,190.883 414.663,189.54 
	414.663,186.377 "/>
<polygon style="fill:#D8D6D6;" points="398.87,186.377 398.781,189.54 403.074,190.883 407.744,190.883 407.744,186.377 "/>
<polygon style="fill:#CCCACA;" points="398.781,184.922 398.781,189.54 407.744,187.24 407.744,182.618 "/>
<polygon style="fill:#E2DDDC;" points="407.744,184.555 407.744,187.24 414.663,189.54 414.663,186.855 "/>
<polygon style="fill:#EDEDED;" points="312.221,161.288 312.221,155.664 301.133,155.488 300.976,161.288 299.099,238.173 
	314.098,238.173 "/>
<polygon style="fill:#DDDDDD;" points="301.133,155.488 300.976,161.288 299.099,238.173 306.596,238.173 306.596,155.664 "/>
<polygon style="fill:#EAE5E4;" points="296.395,160.585 296.286,164.452 301.339,166.093 311.884,166.093 317.381,164.452 
	317.381,160.585 "/>
<polygon style="fill:#CCCACA;" points="296.286,161.172 296.286,164.452 306.832,161.639 306.832,158.36 "/>
<polygon style="fill:#E2DDDC;" points="306.832,158.36 306.832,161.639 317.381,164.452 317.381,161.172 "/>
<polygon style="fill:#EDEDED;" points="350.024,168.849 350.024,163.221 339.972,163.045 339.826,168.849 338.125,245.735 
	351.722,245.735 "/>
<polygon style="fill:#DDDDDD;" points="339.972,163.045 339.826,168.849 338.125,245.735 344.923,245.735 344.923,163.221 "/>
<polygon style="fill:#EAE5E4;" points="336.285,170.554 336.191,173.718 340.488,175.061 349.452,175.061 354.123,173.718 
	354.123,170.554 "/>
<polygon style="fill:#D8D6D6;" points="336.285,170.554 336.191,173.718 340.488,175.061 345.159,175.061 345.159,170.554 "/>
<polygon style="fill:#CCCACA;" points="336.191,167.383 336.191,173.718 345.159,171.418 345.159,165.08 "/>
<polygon style="fill:#E2DDDC;" points="345.159,168.733 345.159,171.418 354.123,173.718 354.123,171.033 "/>
<polygon style="fill:#EDEDED;" points="367.955,173.771 367.955,168.146 357.903,167.97 357.758,173.771 356.056,250.656 
	369.657,250.656 "/>
<polygon style="fill:#DDDDDD;" points="357.903,167.97 357.758,173.771 356.056,250.656 362.855,250.656 362.855,168.146 "/>
<polygon style="fill:#EAE5E4;" points="354.04,175.476 353.951,178.639 358.244,179.982 367.207,179.982 371.878,178.639 
	371.878,175.476 "/>
<polygon style="fill:#D8D6D6;" points="354.1,175.476 354.007,178.639 358.304,179.982 362.974,179.982 362.974,175.476 "/>
<polygon style="fill:#CCCACA;" points="353.951,171.56 353.951,178.639 362.914,176.34 362.914,169.261 "/>
<polygon style="fill:#E2DDDC;" points="362.914,173.655 362.914,176.34 371.878,178.639 371.878,175.958 "/>
<polygon style="fill:#EDEDED;" points="331.386,165.33 331.386,159.706 321.338,159.53 321.192,165.33 319.491,242.22 
	333.088,242.22 "/>
<polygon style="fill:#DDDDDD;" points="321.338,159.53 321.192,165.33 319.491,242.22 326.289,242.22 326.289,159.706 "/>
<polygon style="fill:#EAE5E4;" points="318.174,166.333 318.084,169.5 322.377,170.839 331.349,170.839 336.019,169.5 
	336.019,166.333 "/>
<polygon style="fill:#D8D6D6;" points="318.118,166.217 318.025,169.38 322.325,170.727 326.992,170.727 326.992,166.217 "/>
<polygon style="fill:#CCCACA;" points="318.084,162.421 318.084,169.5 327.048,167.196 327.048,160.117 "/>
<polygon style="fill:#E2DDDC;" points="327.048,164.515 327.048,167.196 336.019,169.5 336.019,166.815 "/>
<polygon style="fill:#EDEDED;" points="384.832,179.223 384.832,173.595 374.784,173.419 374.634,179.223 372.936,256.108 
	386.53,256.108 "/>
<polygon style="fill:#DDDDDD;" points="374.784,173.419 374.634,179.223 372.936,256.108 379.735,256.108 379.735,173.595 "/>
<polygon style="fill:#EAE5E4;" points="371.8,179.87 371.706,183.037 375.999,184.38 384.967,184.38 389.637,183.037 
	389.637,179.87 "/>
<polygon style="fill:#D8D6D6;" points="371.8,179.81 371.706,182.977 375.999,184.32 380.67,184.32 380.674,179.81 "/>
<polygon style="fill:#CCCACA;" points="371.706,176.25 371.706,183.037 380.674,180.734 380.674,173.946 "/>
<polygon style="fill:#E2DDDC;" points="380.674,178.052 380.674,180.734 389.637,183.037 389.637,180.352 "/>
<polygon style="fill:#EAE5E4;" points="387.97,184.092 387.88,187.255 392.173,188.598 401.14,188.598 405.815,187.255 
	405.815,184.092 "/>
<polygon style="fill:#D8D6D6;" points="387.97,184.032 387.88,187.196 392.173,188.538 396.844,188.538 396.844,184.032 "/>
<polygon style="fill:#CCCACA;" points="387.88,181.407 387.88,187.255 396.844,184.952 396.844,179.103 "/>
<polygon style="fill:#E2DDDC;" points="396.844,182.271 396.844,184.952 405.815,187.255 405.815,184.57 "/>
<polygon style="fill:#EDEDED;" points="274.956,161.288 274.791,155.488 263.704,155.664 263.704,161.288 261.826,238.173 
	276.826,238.173 "/>
<polygon style="fill:#DDDDDD;" points="274.956,161.288 274.791,155.488 269.328,155.664 269.328,238.173 276.826,238.173 "/>
<polygon style="fill:#EAE5E4;" points="279.529,160.585 258.543,160.585 258.543,164.452 264.04,166.093 274.586,166.093 
	279.638,164.452 "/>
<polygon style="fill:#CCCACA;" points="269.092,158.36 269.092,161.639 279.638,164.452 279.638,161.172 "/>
<polygon style="fill:#E2DDDC;" points="258.543,161.172 258.543,164.452 269.092,161.639 269.092,158.36 "/>
<polygon style="fill:#EDEDED;" points="233.757,168.849 233.607,163.045 223.559,163.221 223.559,168.849 221.858,245.735 
	235.455,245.735 "/>
<polygon style="fill:#DDDDDD;" points="233.757,168.849 233.607,163.045 228.66,163.221 228.66,245.735 235.455,245.735 "/>
<polygon style="fill:#EAE5E4;" points="237.295,170.554 219.457,170.554 219.457,173.718 224.128,175.061 233.091,175.061 
	237.388,173.718 "/>
<polygon style="fill:#D8D6D6;" points="237.295,170.554 228.421,170.554 228.424,175.061 233.091,175.061 237.388,173.718 "/>
<polygon style="fill:#CCCACA;" points="228.421,165.08 228.421,171.418 237.388,173.718 237.388,167.383 "/>
<polygon style="fill:#C4C4C4;" points="219.457,171.033 219.457,173.718 228.421,171.418 228.421,168.733 "/>
<polygon style="fill:#EDEDED;" points="214.416,173.771 214.27,167.97 204.218,168.146 204.218,173.771 202.52,250.656 
	216.117,250.656 "/>
<polygon style="fill:#DDDDDD;" points="214.416,173.771 214.27,167.97 209.319,168.146 209.319,250.656 216.117,250.656 "/>
<polygon style="fill:#EAE5E4;" points="218.133,175.476 200.292,175.476 200.292,178.639 204.966,179.982 213.93,179.982 
	218.227,178.639 "/>
<polygon style="fill:#D8D6D6;" points="218.077,175.476 209.203,175.476 209.203,179.982 213.874,179.982 218.167,178.639 "/>
<polygon style="fill:#CCCACA;" points="209.259,169.261 209.259,176.34 218.227,178.639 218.227,171.56 "/>
<polygon style="fill:#C4C4C4;" points="200.292,175.958 200.292,178.639 209.259,176.34 209.259,173.655 "/>
<polygon style="fill:#EDEDED;" points="252.391,165.33 252.242,159.53 242.197,159.706 242.197,165.33 240.496,242.22 
	254.089,242.22 "/>
<polygon style="fill:#DDDDDD;" points="252.391,165.33 252.242,159.53 247.294,159.706 247.294,242.22 254.089,242.22 "/>
<polygon style="fill:#EAE5E4;" points="255.405,166.333 237.56,166.333 237.56,169.5 242.235,170.839 251.202,170.839 
	255.495,169.5 "/>
<polygon style="fill:#D8D6D6;" points="255.465,166.217 246.591,166.217 246.591,170.727 251.262,170.727 255.555,169.38 "/>
<polygon style="fill:#CCCACA;" points="246.531,160.117 246.531,167.196 255.495,169.5 255.495,162.421 "/>
<polygon style="fill:#C4C4C4;" points="237.56,166.815 237.56,169.5 246.531,167.196 246.531,164.515 "/>
<polygon style="fill:#EDEDED;" points="41.745,206.058 41.745,211.686 40.862,262.125 45.787,261.572 45.787,206.058 
	49.718,205.886 "/>
<polygon style="fill:#DDDDDD;" points="49.83,211.686 49.718,205.886 45.787,206.058 45.787,261.572 49.28,261.183 49.991,220.657 
	"/>
<polygon style="fill:#EAE5E4;" points="54.605,210.755 38.817,210.755 38.817,213.919 41.435,215.261 50.402,215.261 
	54.695,213.919 "/>
<polygon style="fill:#D8D6D6;" points="54.605,210.755 45.731,210.755 45.731,215.261 50.402,215.261 54.695,213.919 "/>
<polygon style="fill:#CCCACA;" points="45.731,206.997 45.731,211.615 54.695,213.919 54.695,209.3 "/>
<polygon style="fill:#E2DDDC;" points="38.817,211.234 38.817,213.919 45.731,211.615 45.731,208.93 "/>
<polygon style="fill:#EDEDED;" points="50.503,203.949 50.503,209.577 50.312,220.657 51.019,261.022 54.549,260.63 54.549,203.949 
	58.476,203.777 "/>
<polygon style="fill:#DDDDDD;" points="58.592,209.577 58.476,203.777 54.549,203.949 54.549,260.63 59.478,260.08 "/>
<polygon style="fill:#EAE5E4;" points="63.363,208.642 47.575,208.642 47.575,211.809 50.196,213.152 59.16,213.152 63.457,211.809 
	"/>
<polygon style="fill:#D8D6D6;" points="63.363,208.642 54.489,208.642 54.489,213.152 59.16,213.152 63.457,211.809 "/>
<polygon style="fill:#CCCACA;" points="54.489,204.888 54.489,209.506 63.457,211.809 63.457,207.191 "/>
<polygon style="fill:#E2DDDC;" points="47.575,209.124 47.575,211.809 54.489,209.506 54.489,206.825 "/>
<polygon style="fill:#DDDDDD;" points="50.312,220.657 49.602,261.183 51.019,261.022 "/>
<polygon style="fill:#EDEDED;" points="61.052,202.307 61.052,207.935 60.14,260.005 65.095,259.448 65.095,202.307 69.025,202.135 
	"/>
<polygon style="fill:#DDDDDD;" points="69.141,207.935 69.025,202.135 65.095,202.307 65.095,259.448 70.035,258.898 "/>
<polygon style="fill:#EAE5E4;" points="73.913,207.004 58.124,207.004 58.124,210.168 60.742,211.51 69.709,211.51 74.006,210.168 
	"/>
<polygon style="fill:#D8D6D6;" points="73.913,207.004 65.039,207.004 65.039,211.51 69.709,211.51 74.006,210.168 "/>
<polygon style="fill:#CCCACA;" points="65.039,203.246 65.039,207.864 74.006,210.168 74.006,205.549 "/>
<polygon style="fill:#C4C4C4;" points="58.124,207.483 58.124,210.168 65.039,207.864 65.039,205.183 "/>
<polygon style="fill:#EDEDED;" points="72.544,199.263 72.544,204.888 71.598,258.722 76.587,258.165 76.587,199.263 
	80.509,199.087 "/>
<polygon style="fill:#DDDDDD;" points="80.629,204.888 80.509,199.087 76.587,199.263 76.587,258.165 81.553,257.608 "/>
<polygon style="fill:#EAE5E4;" points="85.397,203.956 69.608,203.956 69.608,207.12 72.23,208.463 81.194,208.463 85.49,207.12 "/>
<polygon style="fill:#D8D6D6;" points="85.397,203.956 76.523,203.956 76.527,208.463 81.194,208.463 85.49,207.12 "/>
<polygon style="fill:#CCCACA;" points="76.523,200.202 76.523,204.82 85.49,207.12 85.49,202.502 "/>
<polygon style="fill:#C4C4C4;" points="69.608,204.435 69.608,207.12 76.523,204.82 76.523,202.135 "/>
<polygon style="fill:#EDEDED;" points="83.557,197.154 83.557,202.778 82.596,257.492 87.6,256.931 87.6,197.154 91.53,196.978 "/>
<polygon style="fill:#DDDDDD;" points="91.646,202.778 91.53,196.978 87.6,197.154 87.6,256.931 92.584,256.378 "/>
<polygon style="fill:#EAE5E4;" points="96.414,201.847 80.629,201.847 80.629,205.011 83.247,206.353 92.21,206.353 96.511,205.011 
	"/>
<polygon style="fill:#D8D6D6;" points="96.414,201.847 87.54,201.847 87.54,206.353 92.21,206.353 96.511,205.011 "/>
<polygon style="fill:#CCCACA;" points="87.54,198.089 87.54,202.711 96.511,205.011 96.511,200.393 "/>
<polygon style="fill:#C4C4C4;" points="80.629,202.326 80.629,205.011 87.54,202.711 87.54,200.026 "/>
<polygon style="fill:#EDEDED;" points="96.451,193.871 96.451,199.499 95.456,256.056 100.494,255.491 100.494,193.871 
	104.42,193.695 "/>
<polygon style="fill:#DDDDDD;" points="104.536,199.499 104.42,193.695 100.494,193.871 100.494,255.491 105.508,254.93 "/>
<polygon style="fill:#EAE5E4;" points="109.308,198.568 93.519,198.568 93.519,201.731 96.137,203.074 105.104,203.074 
	109.401,201.731 "/>
<polygon style="fill:#D8D6D6;" points="109.308,198.568 100.434,198.568 100.434,203.074 105.104,203.074 109.401,201.731 "/>
<polygon style="fill:#CCCACA;" points="100.434,194.809 100.434,199.428 109.401,201.731 109.401,197.109 "/>
<polygon style="fill:#C4C4C4;" points="93.519,199.046 93.519,201.731 100.434,199.428 100.434,196.743 "/>
<polygon style="fill:#EDEDED;" points="109.577,191.526 109.577,197.154 108.567,254.586 113.619,254.026 113.619,191.526 
	117.55,191.35 "/>
<polygon style="fill:#DDDDDD;" points="117.662,197.154 117.55,191.35 113.619,191.526 113.619,254.026 118.653,253.461 "/>
<polygon style="fill:#EAE5E4;" points="122.434,196.223 106.649,196.223 106.649,199.387 109.267,200.729 118.23,200.729 
	122.527,199.387 "/>
<polygon style="fill:#D8D6D6;" points="122.434,196.223 113.56,196.223 113.56,200.729 118.23,200.729 122.527,199.387 "/>
<polygon style="fill:#CCCACA;" points="113.56,192.465 113.56,197.087 122.527,199.387 122.527,194.764 "/>
<polygon style="fill:#C4C4C4;" points="106.649,196.698 106.649,199.387 113.56,197.087 113.56,194.398 "/>
<polygon style="fill:#EDEDED;" points="123.174,188.714 123.174,194.342 122.142,253.072 127.217,252.504 127.217,188.714 
	131.139,188.538 "/>
<polygon style="fill:#DDDDDD;" points="131.259,194.342 131.139,188.538 127.217,188.714 127.217,252.504 132.269,251.939 "/>
<polygon style="fill:#EAE5E4;" points="136.031,193.407 120.242,193.407 120.242,196.571 122.864,197.913 131.827,197.913 
	136.124,196.571 "/>
<polygon style="fill:#D8D6D6;" points="136.031,193.407 127.157,193.407 127.157,197.913 131.827,197.913 136.124,196.571 "/>
<polygon style="fill:#CCCACA;" points="127.157,189.652 127.157,194.271 136.124,196.571 136.124,191.952 "/>
<polygon style="fill:#C4C4C4;" points="120.242,193.889 120.242,196.571 127.157,194.271 127.157,191.586 "/>
<polygon style="fill:#EDEDED;" points="137.235,184.963 137.235,190.591 136.169,251.501 141.277,250.929 141.277,184.963 
	145.208,184.787 "/>
<polygon style="fill:#DDDDDD;" points="145.324,190.591 145.208,184.787 141.277,184.963 141.277,250.929 146.374,250.364 "/>
<polygon style="fill:#EAE5E4;" points="150.095,189.656 134.307,189.656 134.307,192.82 136.925,194.166 145.892,194.166 
	150.185,192.82 "/>
<polygon style="fill:#D8D6D6;" points="150.095,189.656 141.221,189.656 141.221,194.166 145.892,194.166 150.185,192.82 "/>
<polygon style="fill:#CCCACA;" points="141.221,185.902 141.221,190.52 150.185,192.82 150.185,188.205 "/>
<polygon style="fill:#C4C4C4;" points="134.307,190.139 134.307,192.82 141.221,190.52 141.221,187.835 "/>
<polygon style="fill:#EDEDED;" points="161.262,187.308 161.149,181.508 153.177,181.683 153.177,187.308 151.83,264.193 
	162.612,264.193 "/>
<polygon style="fill:#DDDDDD;" points="161.262,187.308 161.149,181.508 157.219,181.683 157.219,264.193 162.612,264.193 "/>
<polygon style="fill:#EAE5E4;" points="166.037,186.377 150.249,186.377 150.249,189.54 152.866,190.883 161.834,190.883 
	166.127,189.54 "/>
<polygon style="fill:#D8D6D6;" points="166.037,186.377 157.159,186.377 157.159,190.883 161.834,190.883 166.127,189.54 "/>
<polygon style="fill:#CCCACA;" points="157.159,182.618 157.159,187.24 166.127,189.54 166.127,184.922 "/>
<polygon style="fill:#C4C4C4;" points="150.249,186.855 150.249,189.54 157.159,187.24 157.159,184.555 "/>
<polygon style="fill:#EDEDED;" points="178.553,184.144 178.404,178.34 168.359,178.52 168.359,184.144 166.658,261.03 
	180.251,261.03 "/>
<polygon style="fill:#DDDDDD;" points="178.553,184.144 178.404,178.34 173.456,178.52 173.456,261.03 180.251,261.03 "/>
<polygon style="fill:#EAE5E4;" points="181.388,184.092 163.547,184.092 163.547,187.255 168.221,188.598 177.185,188.598 
	181.482,187.255 "/>
<polygon style="fill:#D8D6D6;" points="181.388,184.032 172.514,184.032 172.518,188.538 177.185,188.538 181.482,187.196 "/>
<polygon style="fill:#CCCACA;" points="172.514,179.103 172.514,184.952 181.482,187.255 181.482,181.407 "/>
<polygon style="fill:#C4C4C4;" points="163.547,184.57 163.547,187.255 172.514,184.952 172.514,182.271 "/>
<polygon style="fill:#EDEDED;" points="195.191,179.223 195.049,173.419 184.997,173.595 184.997,179.223 183.299,256.108 
	196.892,256.108 "/>
<polygon style="fill:#DDDDDD;" points="195.191,179.223 195.049,173.419 190.094,173.595 190.094,256.108 196.892,256.108 "/>
<polygon style="fill:#EAE5E4;" points="198.033,179.87 180.195,179.87 180.195,183.037 184.866,184.38 193.83,184.38 
	198.126,183.037 "/>
<polygon style="fill:#D8D6D6;" points="198.033,179.81 189.159,179.81 189.159,184.32 193.83,184.32 198.126,182.977 "/>
<polygon style="fill:#CCCACA;" points="189.159,173.946 189.159,180.734 198.126,183.037 198.126,176.25 "/>
<polygon style="fill:#C4C4C4;" points="180.195,180.352 180.195,183.037 189.159,180.734 189.159,178.052 "/>
<polygon style="fill:#F0F2F2;" points="288.669,145.899 288.669,155.978 414.779,187.308 416.185,184.963 416.185,180.745 "/>
<polygon style="fill:#E8E8E8;" points="39.254,206.529 39.254,210.751 39.022,213.328 288.901,156.131 288.901,146.053 "/>
<polygon style="fill:#D8D6D6;" points="297.023,161.531 296.926,164.695 301.226,166.037 306.596,166.037 306.596,161.531 "/>
<polygon style="fill:#E0D4CA;" points="289.604,128.002 250.69,138.787 250.69,147.223 287.73,137.381 415.246,170.667 
	420.403,170.199 420.403,167.383 "/>
<polygon style="fill:#DBD2CC;" points="415.246,170.667 287.73,134.565 253.506,144.411 250.69,144.882 246.472,144.411 
	244.127,146.76 241.315,144.882 239.437,147.694 235.223,147.694 233.346,148.162 226.783,149.568 224.438,151.442 223.032,147.694 
	220.22,149.101 217.408,155.664 214.124,155.664 198.182,158.947 185.991,161.288 178.026,165.042 170.053,165.042 161.617,167.383 
	149.897,172.54 144.736,171.134 140.518,173.946 132.545,173.946 127.86,178.165 127.396,181.448 125.048,180.513 119.423,182.387 
	119.423,187.076 102.075,191.294 91.762,193.171 89.417,191.294 86.605,190.823 86.605,193.639 83.321,194.577 76.759,191.294 
	76.759,188.949 66.916,187.543 58.476,190.356 53.786,192.229 53.786,196.451 50.503,200.202 50.039,195.512 46.285,195.045 
	44.879,199.734 39.722,200.669 39.254,206.529 288.901,146.053 416.185,180.745 "/>
<polygon style="fill:#F0F2F2;" points="385.161,147.822 378.329,144.06 373.408,141.599 370.05,141.588 357.582,136.442 
	356.643,129.408 298.512,132.691 416.185,167.855 "/>
<polygon style="fill:#EDEDED;" points="412.827,249.714 411.731,187.308 411.731,181.683 403.758,181.508 407.688,181.683 
	407.688,249.082 "/>
<polygon style="fill:#DDDDDD;" points="403.758,181.508 403.646,187.308 402.569,248.45 407.688,249.082 407.688,181.683 "/>
<g>
	<polygon style="fill:#EDEDED;" points="402.427,248.435 401.009,184.144 401.009,178.52 390.958,178.34 395.909,178.52 
		395.909,247.631 	"/>
	<polygon style="fill:#EDEDED;" points="402.647,258.333 402.401,258.333 402.352,261.03 402.707,261.03 	"/>
</g>
<polygon style="fill:#DDDDDD;" points="390.958,178.34 390.812,184.144 389.424,246.831 395.909,247.631 395.909,178.52 "/>
<g>
	<polygon style="fill:#F0F2F2;" points="402.427,248.435 402.509,252.07 402.569,248.45 	"/>
	<polygon style="fill:#F0F2F2;" points="402.509,252.07 402.401,258.333 402.647,258.333 	"/>
	<path style="fill:#F0F2F2;" d="M288.669,234.453L288.669,234.453l-142.295,15.912L288.669,234.453z M288.669,234.449l0.105-0.011
		l-0.105-0.015V234.449z M288.774,234.438L288.774,234.438l0.127-0.015L288.774,234.438z"/>
</g>
<polygon style="fill:#E2E2E2;" points="146.374,250.364 141.277,250.929 136.169,251.501 132.269,251.939 127.217,252.504 
	122.142,253.072 118.653,253.461 113.619,254.026 108.567,254.586 105.508,254.93 100.494,255.491 95.456,256.056 92.584,256.378 
	87.6,256.931 82.596,257.492 81.553,257.608 76.587,258.165 71.598,258.722 70.035,258.898 65.095,259.448 60.14,260.005 
	59.478,260.08 54.549,260.63 51.019,261.022 49.602,261.183 46.109,261.572 41.184,262.125 28.941,263.494 28.941,270.525 
	41.046,269.956 46.109,269.72 49.456,269.563 51.169,269.481 54.549,269.324 59.635,269.085 59.983,269.07 65.095,268.83 
	70.207,268.587 71.426,268.531 76.587,268.292 81.736,268.049 82.413,268.015 87.6,267.772 92.779,267.529 95.258,267.417 
	100.494,267.17 105.722,266.923 108.358,266.8 113.619,266.553 118.874,266.306 121.914,266.164 127.217,265.917 132.512,265.667 
	135.922,265.506 141.277,265.255 146.629,265.009 288.901,258.333 288.901,234.423 "/>
<polygon style="fill:#E6E8E8;" points="288.669,234.423 288.669,258.333 409.618,258.333 409.618,249.897 "/>
<path style="fill:#EBEDED;" d="M445.484,259.037c-9.139-1.406-7.03-2.109-20.392-2.109c-13.362,0-9.846-0.703-21.798-0.703h-27.426
	c-3.515,0-6.331-0.703-20.396-0.703c-14.065,0-9.846-4.921-20.392-1.406c-10.011,3.336-19.693,1.406-21.802,1.406
	c-2.105,0-23.204-0.703-32.347-0.703c-9.14,0,1.406,0-14.065,0s-18.283-1.406-22.505,0c-4.218,1.406-8.44,2.812-14.065,3.515
	c-5.628,0.703-10.549,0-16.174-0.703c-5.628-0.703-18.986-0.703-18.986-0.703l-7.034,1.406l-22.505-1.406l-14.065,1.406
	l-15.474-4.218l-1.406,4.921h-11.249c0,0-1.406,0-3.515,0c-2.105,0-13.358-0.703-13.358-0.703l-7.034,2.812
	c0,0-6.327-1.406-9.14-2.109c-2.816-0.703-14.065-3.515-17.58-3.515H58.012c-4.222,0-9.846,0-9.846,0l-16.174-2.109
	c0,0,11.252-4.921-6.327-2.812s-23.208,2.812-23.208,2.812l-1.788,0.138c0.595,8.526,1.642,16.925,3.119,25.179h18.358
	c16.174,0,14.768-1.406,21.802,1.406c7.03,2.812,11.249,4.218,16.17,3.515c4.921-0.703,13.361-2.109,13.361-2.109l18.287,2.109
	c0,0,19.693-6.327,30.941-6.327s16.174-0.703,19.689,0c3.515,0.703,19.693-4.218,25.321-2.812
	c5.624,1.406,21.798-1.406,29.531,4.218c7.737,5.624,18.99,0.703,25.321,0.703c6.331,0,29.531,0.703,29.531,0.703l8.44-3.515
	l21.099,2.812c0,0,10.546,0.703,16.174,0.703s-2.812-1.406,23.208,1.406c26.016,2.812,16.877,3.515,45.709,2.812
	c28.832-0.703,33.753,0.703,41.491,0.703s18.287-11.955,30.941-5.624c12.655,6.331,13.361,9.143,19.693,9.846
	c3.639,0.404,4.506,1.5,8.579,1.559c2.315-9.917,4.061-20.048,5.086-30.403C433.652,265.222,453.924,260.338,445.484,259.037z"/>
<g>
	<path style="fill:#E2E2E2;" d="M119.909,383.815c0,0-10.49-9.27-34.729-12.513c-5.378-0.722-3.586,6.024-7.472,10.561
		s-4.832,15.994-4.832,15.994h50.522C123.395,395.916,119.909,383.815,119.909,383.815z"/>
	<path style="fill:#E2E2E2;" d="M179.664,282.476l-4.218-10.549l-4.921,0.703c0,0-18.986,0-23.208,0c-4.218,0-7.03,2.812-7.03,2.812
		l2.105,28.129l35.163,4.218l3.511-8.44L179.664,282.476z"/>
</g>
<path style="fill:#D4D6D6;" d="M147.317,272.634c-4.218,0-7.03,2.812-7.03,2.812l2.105,28.129l5.632,0.677
	C148.024,304.252,151.539,272.634,147.317,272.634z"/>
<path style="fill:#E2E2E2;" d="M137.317,317.632c0,0,0.31-9.637-38.465-0.703l3.717,25.983c0,0,19.906,9.001,37.441-2.535
	L137.317,317.632z"/>
<path style="fill:#D4D6D6;" d="M108.672,314.902c-2.954,0.531-6.219,1.2-9.82,2.027l3.717,25.983c0,0,3.867,3.564,9.738,2.726
	C115.31,345.211,108.672,314.902,108.672,314.902z"/>
<path style="fill:#E2E2E2;" d="M158.203,332.583l-4.203-7.012l-3.418,1.062c0,0-13.496,2.176-16.495,2.659s-4.678,2.805-4.678,2.805
	l4.723,19.752l25.478-1.025l1.533-6.402L158.203,332.583z"/>
<path style="fill:#D4D6D6;" d="M134.086,329.292c-2.999,0.482-4.678,2.805-4.678,2.805l4.723,19.752l4.08-0.165
	C138.207,351.685,137.082,328.81,134.086,329.292z"/>
<path style="fill:#E2E2E2;" d="M269.302,426.012c-9.244-10.785-16.174-13.866-28.503-10.015
	c-9.973,3.115-59.788,33.97-78.438,45.634c2.461,0.815,4.94,1.597,7.438,2.333l22.467-17.153c0,0,6.933-3.081,12.326-1.541
	c0,0,13.096-11.555,18.485-11.555c5.392,0,13.1-0.77,22.344,14.637c5.755,9.588,8.519,18.874,9.79,24.524
	c5.464-0.419,10.882-0.98,16.233-1.765C273.389,458.281,276.01,433.839,269.302,426.012z"/>
<path style="fill:#D4D6D6;" d="M245.421,448.352c-9.244-15.407-16.948-14.637-22.344-14.637c-5.389,0-18.485,11.555-18.485,11.555
	c-5.392-1.541-12.326,1.541-12.326,1.541l-22.467,17.153c21.267,6.267,43.749,9.689,67.047,9.689c6.185,0,12.299-0.31,18.365-0.778
	C253.94,467.226,251.176,457.941,245.421,448.352z"/>
<path style="fill:#E2E2E2;" d="M337.115,373.651c-5.606-6.537-3.022-16.263-10.777-15.224
	c-34.935,4.674-50.054,18.036-50.054,18.036s-5.03,17.441-5.03,20.242h72.824C344.078,396.701,342.713,380.184,337.115,373.651z"/>
<path style="fill:#D4D6D6;" d="M319.883,382.79c-5.602-9.334-10.8-10.901-14.068-10.901c-3.268,0-7.386,0.352-7.386,0.352
	c-3.268-0.931-22.15,4.218-22.15,4.218l-5.03,20.242l64.422-0.467C335.675,396.238,325.481,392.128,319.883,382.79z"/>
<path style="fill:#E2E2E2;" d="M131.412,389.746c-3.171-3.695-1.705-9.192-6.096-8.608c-19.749,2.644-28.297,10.202-28.297,10.202
	s-2.846,9.861-2.846,11.443h41.176C135.346,402.778,134.576,393.441,131.412,389.746z"/>
<path style="fill:#D4D6D6;" d="M121.667,394.914c-3.167-5.28-6.103-6.163-7.954-6.163c-1.844,0-4.173,0.198-4.173,0.198
	c-1.847-0.527-12.524,2.386-12.524,2.386l-2.846,11.443l36.423-0.262C130.597,402.517,124.834,400.194,121.667,394.914z"/>
<path style="fill:#E2E2E2;" d="M406.447,360.517l-5.89-9.816l-4.783,1.485c0,0-18.889,3.044-23.084,3.721
	c-4.196,0.673-6.548,3.923-6.548,3.923l6.608,27.647l35.657-1.436l2.143-8.96L406.447,360.517z"/>
<path style="fill:#D4D6D6;" d="M372.686,355.91c-4.196,0.673-6.548,3.923-6.548,3.923l6.608,27.647l5.71-0.232
	C378.456,387.248,376.882,355.233,372.686,355.91z"/>
<path style="fill:#E2E2E2;" d="M391.986,374.784c0,0,0.232-7.09-28.301-0.512l2.734,19.12c0,0,14.648,6.619,27.546-1.87
	L391.986,374.784z"/>
<path style="fill:#D4D6D6;" d="M370.913,372.776c-2.18,0.389-4.581,0.883-7.229,1.492l2.734,19.12c0,0,2.846,2.621,7.165,2.004
	C375.794,395.075,370.913,372.776,370.913,372.776z"/>
<path style="fill:#E2E2E2;" d="M342.347,275.221v13.616c0,0,9.558,6.084,19.408,1.451l0.284-11.877
	C362.043,278.411,362.911,273.483,342.347,275.221z"/>
<path style="fill:#D4D6D6;" d="M347.541,274.9c-1.559,0.056-3.283,0.161-5.194,0.322v13.616c0,0,1.724,2.117,4.798,2.117
	C348.719,290.954,347.541,274.9,347.541,274.9z"/>
<path style="fill:#E2E2E2;" d="M354.538,282.723v13.616c0,0,9.558,6.081,19.405,1.447l0.288-11.877
	C374.23,285.909,375.102,280.988,354.538,282.723z"/>
<path style="fill:#D4D6D6;" d="M359.725,282.401c-1.556,0.056-3.28,0.157-5.191,0.322v13.616c0,0,1.72,2.113,4.798,2.113
	C360.91,298.452,359.725,282.401,359.725,282.401z"/>
<path style="fill:#E2E2E2;" d="M383.134,272.989v17.703c0,0,8.65,7.909,17.557,1.885l0.262-15.441
	C400.957,277.136,401.742,270.73,383.134,272.989z"/>
<path style="fill:#D4D6D6;" d="M387.831,272.574c-1.41,0.071-2.969,0.206-4.697,0.415v17.703c0,0,1.556,2.749,4.342,2.749
	C388.901,293.441,387.831,272.574,387.831,272.574z"/>
<path style="fill:#E2E2E2;" d="M427.669,273.815v13.616c0,0,15.022,6.084,30.489,1.451l0.456-11.877
	C458.618,277.001,459.983,272.076,427.669,273.815z"/>
<path style="fill:#D4D6D6;" d="M435.829,273.494c-2.449,0.056-5.157,0.157-8.16,0.322v13.616c0,0,2.707,2.113,7.543,2.113
	C437.684,289.544,435.829,273.494,435.829,273.494z"/>
<path style="fill:#E2E2E2;" d="M372.589,274.814l-2.281,15.717c0,0,8.96,8.474,20.022,4.618l2.296-13.664
	C392.625,281.481,394.361,275.932,372.589,274.814z"/>
<path style="fill:#D4D6D6;" d="M372.589,274.814l-2.281,15.717c0,0,1.443,2.704,4.656,3.167c1.642,0.239,3.104-18.466,3.104-18.466
	C376.429,275.061,374.612,274.919,372.589,274.814z"/>
<path style="fill:#E2E2E2;" d="M413.608,273.928v17.699c0,0,9.562,7.909,19.405,1.885l0.292-15.441
	C433.304,278.071,434.176,271.669,413.608,273.928z"/>
<path style="fill:#D4D6D6;" d="M418.799,273.512c-1.559,0.071-3.283,0.206-5.194,0.419v17.699c0,0,1.724,2.749,4.798,2.749
	C419.98,294.379,418.799,273.512,418.799,273.512z"/>
<path style="fill:#E2E2E2;" d="M398.605,278.662v11.024c0,0,7.737,4.925,15.714,1.174l0.236-9.618
	C414.554,281.242,415.257,277.256,398.605,278.662z"/>
<path style="fill:#D4D6D6;" d="M402.808,278.404c-1.26,0.045-2.659,0.127-4.203,0.258v11.024c0,0,1.395,1.713,3.885,1.713
	C403.766,291.395,402.808,278.404,402.808,278.404z"/>
<path style="fill:#E2E2E2;" d="M190.916,270.536v13.616c0,0,9.562,6.081,19.408,1.447l0.288-11.877
	C210.613,273.722,211.484,268.797,190.916,270.536z"/>
<path style="fill:#D4D6D6;" d="M196.111,270.214c-1.559,0.056-3.283,0.157-5.194,0.318v13.616c0,0,1.724,2.113,4.802,2.113
	C197.289,286.264,196.111,270.214,196.111,270.214z"/>
<path style="fill:#E2E2E2;" d="M206.391,270.536v13.616c0,0,9.558,6.081,19.405,1.447l0.292-11.877
	C226.087,273.722,226.955,268.797,206.391,270.536z"/>
<path style="fill:#D4D6D6;" d="M211.578,270.214c-1.556,0.056-3.283,0.157-5.191,0.318v13.616c0,0,1.724,2.113,4.798,2.113
	C212.763,286.264,211.578,270.214,211.578,270.214z"/>
<path style="fill:#E2E2E2;" d="M239.445,268.348v17.703c0,0,8.65,7.913,17.561,1.885l0.262-15.444
	C257.271,272.492,258.057,266.089,239.445,268.348z"/>
<path style="fill:#D4D6D6;" d="M244.146,267.933c-1.41,0.075-2.969,0.206-4.701,0.415v17.703c0,0,1.563,2.749,4.345,2.749
	C245.211,288.8,244.146,267.933,244.146,267.933z"/>
<path style="fill:#E2E2E2;" d="M278.116,270.955v11.757c0,0,12.973,5.25,26.334,1.249l0.393-10.254
	C304.846,273.707,306.024,269.455,278.116,270.955z"/>
<path style="fill:#D4D6D6;" d="M285.165,270.678c-2.117,0.049-4.454,0.138-7.049,0.277v11.757c0,0,2.341,1.821,6.514,1.821
	C286.766,284.533,285.165,270.678,285.165,270.678z"/>
<path style="fill:#E2E2E2;" d="M224.446,267.312l-2.285,15.714c0,0,8.96,8.478,20.025,4.622l2.292-13.668
	C244.478,273.98,246.214,268.43,224.446,267.312z"/>
<path style="fill:#D4D6D6;" d="M224.446,267.312l-2.285,15.714c0,0,1.447,2.704,4.66,3.171c1.638,0.236,3.1-18.466,3.1-18.466
	C228.282,267.559,226.465,267.417,224.446,267.312z"/>
<path style="fill:#E2E2E2;" d="M263.58,272.331v10.643c0,0,10.927,4.753,22.179,1.133l0.337-9.282
	C286.096,274.821,287.087,270.97,263.58,272.331z"/>
<path style="fill:#D4D6D6;" d="M269.515,272.08c-1.78,0.045-3.751,0.123-5.935,0.251v10.643c0,0,1.971,1.653,5.486,1.653
	C270.869,284.626,269.515,272.08,269.515,272.08z"/>
<path style="fill:#E2E2E2;" d="M250.458,271.16v11.024c0,0,7.737,4.925,15.714,1.174l0.236-9.614
	C266.404,273.744,267.11,269.754,250.458,271.16z"/>
<path style="fill:#D4D6D6;" d="M254.661,270.902c-1.26,0.045-2.659,0.131-4.203,0.258v11.024c0,0,1.395,1.713,3.885,1.713
	C255.619,283.897,254.661,270.902,254.661,270.902z"/>
<path style="fill:#E2E2E2;" d="M214.566,314.326v33.05c0,0,23.204,14.768,47.115,3.515l0.703-28.832
	C262.383,322.06,264.496,310.104,214.566,314.326z"/>
<path style="fill:#D4D6D6;" d="M227.168,313.545c-3.781,0.138-7.969,0.389-12.602,0.778v33.05c0,0,4.181,5.131,11.649,5.131
	C230.036,352.507,227.168,313.545,227.168,313.545z"/>
<path style="fill:#E2E2E2;" d="M13.702,270.902v10.759c0,0,7.558,4.809,15.343,1.144l0.232-9.386
	C29.273,273.423,29.958,269.53,13.702,270.902z"/>
<path style="fill:#D4D6D6;" d="M17.808,270.648c-1.23,0.045-2.592,0.127-4.106,0.254v10.759c0,0,1.361,1.672,3.796,1.672
	C18.743,283.333,17.808,270.648,17.808,270.648z"/>
<path style="fill:#E2E2E2;" d="M23.335,276.833v10.759c0,0,7.558,4.809,15.343,1.144l0.228-9.386
	C38.903,279.35,39.591,275.461,23.335,276.833z"/>
<path style="fill:#D4D6D6;" d="M27.441,276.579c-1.23,0.045-2.592,0.123-4.106,0.254v10.759c0,0,1.361,1.672,3.796,1.672
	C28.376,289.264,27.441,276.579,27.441,276.579z"/>
<path style="fill:#E2E2E2;" d="M45.937,269.137v13.993c0,0,6.84,6.249,13.881,1.488l0.209-12.206
	C60.028,272.413,60.648,267.353,45.937,269.137z"/>
<path style="fill:#D4D6D6;" d="M49.65,268.808c-1.114,0.056-2.348,0.165-3.713,0.329v13.993c0,0,1.234,2.173,3.437,2.173
	C50.495,285.3,49.65,268.808,49.65,268.808z"/>
<path style="fill:#E2E2E2;" d="M81.138,269.792v10.759c0,0,11.869,4.809,24.098,1.144l0.363-9.386
	C105.598,272.312,106.675,268.419,81.138,269.792z"/>
<path style="fill:#D4D6D6;" d="M87.588,269.537c-1.937,0.045-4.076,0.127-6.451,0.254v10.759c0,0,2.139,1.672,5.961,1.672
	C89.054,282.222,87.588,269.537,87.588,269.537z"/>
<path style="fill:#E2E2E2;" d="M37.609,270.581L35.803,283c0,0,7.086,6.698,15.826,3.654l1.814-10.8
	C53.442,275.85,54.811,271.463,37.609,270.581z"/>
<path style="fill:#D4D6D6;" d="M37.609,270.581L35.803,283c0,0,1.144,2.135,3.683,2.506c1.298,0.191,2.449-14.592,2.449-14.592
	C40.642,270.775,39.206,270.663,37.609,270.581z"/>
<path style="fill:#E2E2E2;" d="M70.027,269.878v13.99c0,0,7.554,6.253,15.34,1.488l0.228-12.206
	C85.591,273.153,86.276,268.094,70.027,269.878z"/>
<path style="fill:#D4D6D6;" d="M74.13,269.548c-1.234,0.06-2.595,0.161-4.106,0.329v13.99c0,0,1.361,2.173,3.792,2.173
	C75.057,286.044,74.13,269.548,74.13,269.548z"/>
<path style="fill:#E2E2E2;" d="M58.165,273.621v8.713c0,0,6.122,3.893,12.423,0.927l0.183-7.599
	C70.771,275.659,71.329,272.506,58.165,273.621z"/>
<path style="fill:#D4D6D6;" d="M61.49,273.415c-0.998,0.034-2.105,0.101-3.328,0.206v8.713c0,0,1.107,1.354,3.074,1.354
	C62.249,283.688,61.49,273.415,61.49,273.415z"/>
<path style="fill:#E2E2E2;" d="M89.653,240.051l-5.624,65.401l18.986-2.109l1.406-62.589
	C101.608,228.798,89.653,240.051,89.653,240.051z"/>
<path style="fill:#D4D6D6;" d="M95.759,236.012c-3.25,1.354-6.107,4.039-6.107,4.039l-5.624,65.401l9.248-1.028
	C93.276,304.424,99.155,234.595,95.759,236.012z"/>
<path style="fill:#E2E2E2;" d="M124.812,278.026c-1.406-7.733-11.252-9.846-11.252-9.846c-11.252,3.515-8.44,11.955-8.44,11.955
	l2.109,24.614l22.505-4.218C129.737,300.527,126.222,285.76,124.812,278.026z"/>
<g>
	<path style="fill:#D4D6D6;" d="M113.56,268.18c-11.252,3.515-8.44,11.955-8.44,11.955l2.109,24.614l6.806-1.275L113.56,268.18z"/>
	<polygon style="fill:#D4D6D6;" points="20.033,247.081 13.003,249.194 19.33,292.794 28.469,299.121 	"/>
</g>
<path style="fill:#E2E2E2;" d="M31.282,250.6c0,0,0.703-3.515-2.812-3.515s-8.44,0-8.44,0l7.733,52.04h10.549L31.282,250.6z"/>
<g>
</g>
<g>
</g>
<g>
</g>
<g>
</g>
<g>
</g>
<g>
</g>
<g>
</g>
<g>
</g>
<g>
</g>
<g>
</g>
<g>
</g>
<g>
</g>
<g>
</g>
<g>
</g>
<g>
</g>
</svg>
